<?xml version="1.0" encoding="utf-8"?>
<!-- Generator: Adobe Illustrator 16.0.0, SVG Export Plug-In . SVG Version: 6.00 Build 0)  -->
<!DOCTYPE svg PUBLIC "-//W3C//DTD SVG 1.1//EN" "http://www.w3.org/Graphics/SVG/1.1/DTD/svg11.dtd">
<svg version="1.1" id="Layer_1" xmlns="http://www.w3.org/2000/svg" xmlns:xlink="http://www.w3.org/1999/xlink" x="0px" y="0px"
	 width="406.56px" height="275.506px" viewBox="0 0 406.56 275.506" enable-background="new 0 0 406.56 275.506"
	 xml:space="preserve">
<path fill="#F1BDD7" d="M112.981,0C50.683,0,0,50.683,0,112.981s50.683,112.981,112.981,112.981v-17.008
	c-52.92,0-95.974-43.054-95.974-95.974s43.054-95.974,95.974-95.974s95.974,43.054,95.974,95.974
	c0,17.375-4.642,33.687-12.75,47.761h19.15c6.799-14.516,10.607-30.701,10.607-47.761C225.963,50.683,175.28,0,112.981,0z"/>
<path fill="#333333" d="M129.628,169.931c1.793-1.107,3.867-1.661,6.222-1.661c2.32,0,4.209,0.519,5.668,1.555
	c1.458,1.038,2.575,2.558,3.348,4.562l4.166-1.951c-0.738-1.757-1.732-3.243-2.979-4.456c-1.249-1.213-2.751-2.126-4.508-2.742
	c-1.758-0.615-3.762-0.923-6.011-0.923c-3.235,0-6.056,0.73-8.463,2.188c-2.408,1.459-4.271,3.525-5.589,6.196
	c-1.318,2.672-1.978,5.853-1.978,9.543c0,3.691,0.659,6.874,1.978,9.544c1.318,2.672,3.181,4.738,5.589,6.196
	c2.407,1.459,5.264,2.188,8.569,2.188c2.179,0,4.192-0.369,6.037-1.107c1.846-0.738,3.454-1.819,4.825-3.243
	c1.371-1.423,2.426-3.119,3.164-5.088l-4.218-1.582c-0.773,2.355-2.022,4.122-3.744,5.3s-3.743,1.766-6.063,1.766
	c-2.391,0-4.465-0.554-6.222-1.661c-1.758-1.107-3.111-2.706-4.06-4.798c-0.949-2.091-1.424-4.595-1.424-7.514
	c0-2.952,0.501-5.465,1.503-7.54C126.438,172.629,127.836,171.038,129.628,169.931z"/>
<path fill="#333333" d="M174.527,174.387c-1.917-1.089-4.122-1.635-6.618-1.635c-2.461,0-4.658,0.545-6.591,1.635
	s-3.445,2.663-4.535,4.719c-1.09,2.057-1.634,4.508-1.634,7.356c0,2.847,0.544,5.299,1.634,7.355c1.089,2.057,2.601,3.63,4.535,4.72
	c1.934,1.09,4.13,1.634,6.591,1.634c2.496,0,4.701-0.544,6.618-1.634c1.916-1.089,3.418-2.663,4.508-4.72
	c1.089-2.057,1.635-4.508,1.635-7.355c0-2.848-0.545-5.299-1.635-7.356C177.945,177.049,176.442,175.476,174.527,174.387z
	 M175.423,191.84c-0.686,1.512-1.661,2.672-2.926,3.48c-1.266,0.809-2.795,1.213-4.588,1.213c-1.792,0-3.322-0.404-4.587-1.213
	c-1.265-0.808-2.241-1.968-2.927-3.48c-0.685-1.511-1.028-3.304-1.028-5.378c0-2.109,0.343-3.91,1.028-5.405
	c0.686-1.494,1.662-2.645,2.927-3.454c1.266-0.808,2.795-1.212,4.587-1.212c1.793,0,3.322,0.405,4.588,1.212
	c1.265,0.809,2.241,1.96,2.926,3.454c0.686,1.495,1.028,3.296,1.028,5.405C176.451,188.536,176.109,190.329,175.423,191.84z"/>
<path fill="#333333" d="M207.139,187.621c0,1.548-0.22,2.883-0.659,4.008c-0.439,1.125-1.037,2.048-1.792,2.769
	c-0.756,0.72-1.608,1.248-2.557,1.582c-0.949,0.334-1.917,0.501-2.9,0.501c-2.109,0-3.744-0.501-4.904-1.503
	c-1.16-1.001-1.74-2.838-1.74-5.51v-16.188h-4.219v17.295c0,2.286,0.466,4.139,1.397,5.563c0.931,1.424,2.144,2.452,3.638,3.084
	c1.494,0.633,3.084,0.949,4.772,0.949c2.109,0,3.945-0.361,5.51-1.081c1.563-0.72,2.803-1.872,3.717-3.454l0.264,4.007h3.691
	v-26.364h-4.219V187.621z"/>
<path fill="#333333" d="M224.855,173.279h-3.691v26.364h4.218v-14.026c0-2.25,0.413-4.042,1.239-5.378
	c0.826-1.335,1.872-2.302,3.137-2.9c1.266-0.597,2.531-0.896,3.796-0.896c1.828,0,3.366,0.572,4.614,1.713
	c1.248,1.143,1.872,3.173,1.872,6.09v15.397h4.219V182.77c0-2.285-0.467-4.166-1.397-5.642c-0.932-1.476-2.171-2.574-3.718-3.295
	c-1.547-0.72-3.269-1.081-5.167-1.081c-1.336,0-2.628,0.193-3.875,0.58c-1.248,0.387-2.346,1.011-3.295,1.872
	c-0.66,0.599-1.22,1.338-1.693,2.2L224.855,173.279z"/>
<path fill="#333333" d="M255.438,193.105c0.034,1.687,0.396,3.05,1.081,4.086c0.685,1.037,1.608,1.793,2.768,2.268
	s2.408,0.711,3.744,0.711c1.44,0,2.715-0.211,3.822-0.633c1.108-0.422,2.065-1.001,2.874-1.74l-1.477-3.533
	c-0.598,0.598-1.265,1.073-2.004,1.424c-0.738,0.352-1.617,0.527-2.636,0.527c-1.16,0-2.109-0.316-2.848-0.949
	c-0.738-0.633-1.107-1.599-1.107-2.9v-15.45h9.597v-3.638h-9.597v-7.488l-4.218,1.16v6.328h-5.273v3.638h5.273V193.105z"/>
<path fill="#333333" d="M279.799,198.537c1.827,1.09,3.831,1.634,6.011,1.634c1.511,0,2.944-0.282,4.297-0.844
	c1.353-0.562,2.495-1.379,3.427-2.452c0.547-0.629,0.961-1.351,1.271-2.144l0.284,4.912h3.691v-38.492h-4.218v16.389
	c-0.597-1.234-1.481-2.269-2.663-3.101c-1.6-1.125-3.489-1.687-5.668-1.687c-2.18,0-4.218,0.536-6.117,1.608
	s-3.427,2.628-4.587,4.666c-1.16,2.039-1.74,4.518-1.74,7.435c0,2.847,0.544,5.299,1.635,7.355
	C276.511,195.874,277.97,197.447,279.799,198.537z M280.221,179.185c1.476-1.827,3.55-2.742,6.222-2.742
	c1.617,0,3.032,0.387,4.245,1.16c1.212,0.774,2.162,1.881,2.847,3.322c0.686,1.442,1.028,3.164,1.028,5.167
	c0,2.109-0.343,3.946-1.028,5.51c-0.686,1.564-1.652,2.769-2.9,3.612c-1.249,0.844-2.716,1.266-4.403,1.266
	c-2.602,0-4.623-0.914-6.064-2.742c-1.442-1.827-2.162-4.253-2.162-7.276C278.006,183.438,278.744,181.013,280.221,179.185z"/>
<path fill="#333333" d="M312.912,198.537c1.933,1.09,4.13,1.634,6.591,1.634c2.496,0,4.701-0.544,6.618-1.634
	c1.916-1.089,3.418-2.663,4.508-4.72s1.635-4.508,1.635-7.355c0-2.848-0.546-5.299-1.635-7.356
	c-1.089-2.056-2.592-3.629-4.508-4.719c-1.917-1.089-4.122-1.635-6.618-1.635c-2.461,0-4.658,0.545-6.591,1.635
	c-1.934,1.089-3.445,2.663-4.535,4.719c-1.09,2.057-1.634,4.508-1.634,7.356c0,2.847,0.544,5.299,1.634,7.355
	C309.467,195.874,310.979,197.447,312.912,198.537z M311.989,181.057c0.686-1.494,1.662-2.645,2.927-3.454
	c1.266-0.808,2.795-1.212,4.587-1.212c1.793,0,3.322,0.405,4.588,1.212c1.265,0.809,2.241,1.96,2.926,3.454
	c0.686,1.495,1.028,3.296,1.028,5.405c0,2.074-0.342,3.867-1.028,5.378c-0.685,1.512-1.661,2.672-2.926,3.48
	c-1.266,0.809-2.795,1.213-4.588,1.213c-1.792,0-3.322-0.404-4.587-1.213c-1.265-0.808-2.241-1.968-2.927-3.48
	c-0.685-1.511-1.028-3.304-1.028-5.378C310.961,184.353,311.304,182.551,311.989,181.057z"/>
<polygon fill="#333333" points="377.136,173.279 372.443,173.279 365.799,194.74 358.628,173.279 354.41,173.279 347.239,194.74 
	340.595,173.279 335.902,173.279 345.077,199.644 349.295,199.644 356.308,178.657 363.743,199.644 367.961,199.644 "/>
<path fill="#333333" d="M405.162,177.128c-0.932-1.476-2.171-2.574-3.718-3.295c-1.547-0.72-3.269-1.081-5.167-1.081
	c-1.336,0-2.627,0.193-3.875,0.58c-1.248,0.387-2.346,1.011-3.295,1.872c-0.66,0.599-1.22,1.338-1.693,2.2l-0.258-4.124h-3.69
	v26.364h4.218v-14.026c0-2.25,0.413-4.042,1.24-5.378c0.825-1.335,1.872-2.302,3.137-2.9c1.265-0.597,2.531-0.896,3.796-0.896
	c1.828,0,3.366,0.572,4.614,1.713c1.248,1.143,1.872,3.173,1.872,6.09v15.397h4.219V182.77
	C406.56,180.485,406.093,178.604,405.162,177.128z"/>
<polygon fill="#333333" points="115.981,225.949 136.538,225.949 136.538,274.512 159.677,274.512 159.677,225.949 180.135,225.949 
	180.135,208.967 115.981,208.967 "/>
<rect x="184.802" y="224.857" fill="#333333" width="22.842" height="49.655"/>
<path fill="#333333" d="M205.807,204.747c-1.888-1.423-5.083-2.136-9.583-2.136c-4.504,0-7.698,0.712-9.584,2.136
	c-1.887,1.424-2.831,3.89-2.831,7.398c0,3.443,0.944,5.894,2.831,7.349c1.886,1.457,5.08,2.185,9.584,2.185
	c4.501,0,7.696-0.728,9.583-2.185c1.886-1.456,2.83-3.906,2.83-7.349C208.636,208.636,207.693,206.171,205.807,204.747z"/>
<path fill="#333333" d="M293.248,225.8c-2.318-1.291-5.131-1.937-8.44-1.937c-2.583,0-4.916,0.382-7.002,1.143
	c-2.085,0.762-3.908,1.887-5.462,3.376c-1.557,1.489-2.865,3.293-3.923,5.412c-1.06-3.178-2.831-5.626-5.313-7.349
	c-2.483-1.721-5.611-2.583-9.385-2.583c-4.237,0-7.813,1.027-10.726,3.079c-2.914,2.053-5.099,4.965-6.555,8.739l-0.497-10.824
	h-20.557v49.655h22.841v-26.019c0-1.788,0.165-3.261,0.496-4.42c0.332-1.157,0.86-2.001,1.589-2.532
	c0.728-0.529,1.622-0.795,2.681-0.795c1.192,0,2.068,0.398,2.632,1.192c0.561,0.794,0.844,2.318,0.844,4.568v28.006h22.841v-26.019
	c0-1.788,0.165-3.261,0.497-4.42c0.332-1.157,0.86-2.001,1.589-2.532c0.728-0.529,1.622-0.795,2.681-0.795
	c1.192,0,2.069,0.398,2.632,1.192c0.562,0.794,0.844,2.318,0.844,4.568v28.006h22.841v-33.964c0-3.576-0.612-6.604-1.837-9.087
	C297.335,228.978,295.565,227.091,293.248,225.8z"/>
<path fill="#333333" d="M348.018,226.893c-3.94-2.019-8.725-3.029-14.351-3.029c-5.496,0-10.313,1.01-14.45,3.029
	c-4.139,2.02-7.349,4.95-9.633,8.789c-2.284,3.841-3.426,8.508-3.426,14.002c0,5.496,1.125,10.164,3.377,14.002
	c2.25,3.844,5.494,6.771,9.731,8.789c4.236,2.021,9.335,3.031,15.294,3.031c3.707,0,7.299-0.533,10.775-1.592
	c3.475-1.057,6.47-2.664,8.987-4.814c2.515-2.15,4.136-4.85,4.866-8.094l-18.373-4.965c-0.332,1.324-0.977,2.367-1.936,3.127
	c-0.96,0.762-2.301,1.143-4.022,1.143c-1.589,0-2.897-0.248-3.922-0.744c-1.028-0.496-1.805-1.49-2.334-2.98
	c-0.248-0.694-0.435-1.542-0.566-2.531h31.551c0.132-0.664,0.249-1.556,0.348-2.682c0.099-1.125,0.148-2.218,0.148-3.278
	c0-4.833-1.027-9.07-3.078-12.712C354.953,231.744,351.957,228.913,348.018,226.893z M330.34,239.951
	c0.895-0.661,2.036-0.993,3.426-0.993c2.119,0,3.492,0.928,4.121,2.78c0.347,1.025,0.596,2.323,0.751,3.874h-10.614
	c0.095-0.84,0.22-1.588,0.378-2.234C328.801,241.756,329.447,240.614,330.34,239.951z"/>
<path fill="#333333" d="M401.297,223.863c-3.908,0-7.036,1.209-9.385,3.625c-2.352,2.418-4.089,5.678-5.214,9.782l-0.497-12.413
	h-20.557v49.655h22.842v-23.834c0-1.853,0.412-3.377,1.241-4.568c0.827-1.192,1.969-2.101,3.426-2.731
	c1.456-0.628,3.177-0.943,5.164-0.943c1.323,0,2.547,0.099,3.674,0.298c1.125,0.199,1.986,0.431,2.582,0.695l1.887-18.372
	c-0.333-0.264-0.894-0.529-1.688-0.794C403.978,223.997,402.818,223.863,401.297,223.863z"/>
<path fill="#ADC6E7" d="M112.981,28.317c-46.684,0-84.665,37.98-84.665,84.665s37.98,84.665,84.665,84.665v-17.008
	c-37.306,0-67.657-30.351-67.657-67.657s30.351-67.657,67.657-67.657s67.657,30.351,67.657,67.657
	c0,18.625-7.566,35.514-19.784,47.761h21.987c9.331-13.605,14.804-30.054,14.804-47.761
	C197.646,66.297,159.666,28.317,112.981,28.317z"/>
</svg>
